HIERARCHY
ROOT Hips
{
  OFFSET -50.12 12.9442 9.62722
  CHANNELS 6 Xposition Yposition Zposition Zrotation Xrotation Yrotation
  JOINT ToSpine
  {
    OFFSET -2.69724 7.43032 -0.144315
    CHANNELS 3 Zrotation Xrotation Yrotation
    JOINT Spine
    {
      OFFSET -0.0310711 10.7595 1.96963
      CHANNELS 3 Zrotation Xrotation Yrotation
      JOINT Spine1
      {
        OFFSET 13.1342 3.43533 0.764692
        CHANNELS 3 Zrotation Xrotation Yrotation
        JOINT Neck
        {
          OFFSET 29.8703 7.82586 -0.130764
          CHANNELS 3 Zrotation Xrotation Yrotation
          JOINT Head
          {
            OFFSET 9.52751 0.295786 -0.907742
            CHANNELS 3 Zrotation Xrotation Yrotation
            End Site
            {
              OFFSET 16.4037 0.713936 2.7358
            }
          }
        }
        JOINT LeftShoulder
        {
          OFFSET 27.5574 4.95586 2.47156
          CHANNELS 3 Zrotation Xrotation Yrotation
          JOINT LeftArm
          {
            OFFSET 1.20734 -0.998971 20.1238
            CHANNELS 3 Zrotation Xrotation Yrotation
            JOINT LeftForeArm
            {
              OFFSET 26.8049 -0.0536703 -0.155908
              CHANNELS 3 Zrotation Xrotation Yrotation
              JOINT LeftHand
              {
                OFFSET 26.6817 0 0.320147
                CHANNELS 3 Zrotation Xrotation Yrotation
                End Site
                {
                  OFFSET 18.6119 0 0.382219
                }
              }
            }
          }
        }
        JOINT RightShoulder
        {
          OFFSET 27.5927 4.71444 -2.65209
          CHANNELS 3 Zrotation Xrotation Yrotation
          JOINT RightArm
          {
            OFFSET 2.83739 -1.17114 -18.7564
            CHANNELS 3 Zrotation Xrotation Yrotation
            JOINT RightForeArm
            {
              OFFSET 28.839 -0.0548439 1.22491
              CHANNELS 3 Zrotation Xrotation Yrotation
              JOINT RightHand
              {
                OFFSET 26.5114 0 -0.101894
                CHANNELS 3 Zrotation Xrotation Yrotation
                End Site
                {
                  OFFSET 18.2168 0 0
                }
              }
            }
          }
        }
      }
    }
  }
  JOINT LeftUpLeg
  {
    OFFSET -4.76168 -1.9167 -10.2353
    CHANNELS 3 Zrotation Xrotation Yrotation
    JOINT LeftLeg
    {
      OFFSET 2.55951 -42.0585 -8.02213
      CHANNELS 3 Zrotation Xrotation Yrotation
      JOINT LeftFoot
      {
        OFFSET 3.16357 -42.5282 -3.95426
        CHANNELS 3 Zrotation Xrotation Yrotation
        JOINT LeftToeBase
        {
          OFFSET 0.346054 -6.02161 12.8035
          CHANNELS 3 Zrotation Xrotation Yrotation
          End Site
          {
            OFFSET 0.134235 -1.35082 5.13018
          }
        }
      }
    }
  }
  JOINT RightUpLeg
  {
    OFFSET -4.94151 -1.41743 10.6446
    CHANNELS 3 Zrotation Xrotation Yrotation
    JOINT RightLeg
    {
      OFFSET -2.56294 -42.0364 -7.94377
      CHANNELS 3 Zrotation Xrotation Yrotation
      JOINT RightFoot
      {
        OFFSET -3.0952 -42.555 -4.02241
        CHANNELS 3 Zrotation Xrotation Yrotation
        JOINT RightToeBase
        {
          OFFSET -0.0828122 -6.13587 12.8035
          CHANNELS 3 Zrotation Xrotation Yrotation
          End Site
          {
            OFFSET -0.131328 -1.35082 5.13018
          }
        }
      }
    }
  }
}
MOTION
Frames:	13
Frame Time:	0.0333333
-50.0723 12.8691 9.64765 -17.402 3.50945 -11.3134 -70.1915 0 88.8779 95.1093 68.7161 -3.30527 -3.96835 19.7632 -1.98167 -174.757 44.13 162.412 -167.665 83.0373 -161.745 1.13396 -9.4551 -22.1603 -125.432 -15.135 -34.2621 14.9125 -14.6951 -132.714 0.420957 0.000576292 0.35866 -2.04702 7.47115 41.7384 -124.12 16.8653 57.8628 19.9258 18.2193 130.387 0.586761 0.000330875 0.0646653 -48.7282 -3.02164 87.6951 -3.80238 37.8697 -22.6701 -3.54844 -4.0401 -0.0736474 23.8652 -42.1927 7.53578 -49.3104 4.81654 96.2283 1.65156 35.4213 11.2925 -3.28097 0.640355 0.541741 7.53006 -41.3008 8.61198 
-50.0725 12.8733 9.64729 -17.385 3.51327 -11.3216 -70.1915 0 88.8779 94.9647 68.7466 -3.2354 -3.83505 19.7443 -1.88793 -175.718 44.2532 163.332 -173.542 83.1713 -156.619 1.12954 -9.50013 -22.3372 -125.654 -15.2138 -34.2835 14.8934 -14.7136 -132.786 0.420957 0.000576292 0.35866 -2.03053 7.46308 41.5514 -124.2 16.8505 57.7923 19.6974 18.0831 130.531 0.586761 0.000330875 0.0646653 -48.6817 -3.04289 87.7203 -3.80179 37.9679 -22.4875 -2.78975 -3.6189 -0.101131 24.299 -42.6945 7.80484 -49.3947 4.66268 96.0108 1.60462 35.2653 11.3271 -2.4855 0.0484828 0.465779 7.48278 -40.011 9.86062 
-50.0753 12.8657 9.64331 -17.3116 3.35435 -11.4052 -70.1915 0 88.8779 95.3731 68.8363 -3.70428 -3.93087 19.8318 -1.79753 -175.683 44.2735 163.635 -175.84 83.1903 -154.261 1.12343 -9.55575 -22.4812 -125.782 -15.3165 -34.411 15.0056 -14.7745 -132.682 0.420957 0.000576292 0.35866 -2.03149 7.48912 41.4665 -124.126 16.8516 57.6691 19.716 18.1059 130.537 0.586761 0.000330875 0.0646653 -48.814 -2.97593 87.9174 -3.79093 37.9449 -22.3598 -2.69326 -3.6801 -0.117096 24.2811 -42.849 7.40807 -49.4361 4.70197 96.1063 1.63498 35.3891 11.4356 -3.25915 0.505884 0.543935 7.67466 -40.9799 9.58374 
-50.0734 12.8536 9.6343 -17.3787 3.46031 -11.3742 -70.1915 0 88.8779 95.0447 68.7411 -3.30394 -3.94899 19.7375 -1.84369 -175.556 44.1939 163.775 -176.007 83.1234 -154.024 1.12197 -9.57204 -22.5866 -125.829 -15.5841 -34.4086 15.0165 -14.7667 -132.645 0.420957 0.000576292 0.35866 -2.06306 7.58968 41.5052 -124.06 16.7946 57.6862 19.8873 18.2238 130.452 0.586761 0.000330875 0.0646653 -48.7181 -3.0184 87.8148 -3.80173 37.9576 -22.5038 -2.82199 -3.69392 -0.106178 24.2729 -42.8235 7.43775 -49.3824 4.72702 96.1981 1.64716 35.3638 11.4042 -3.04277 0.395857 0.520914 7.52323 -40.8966 9.02701 
-50.0519 12.849 9.63657 -17.361 3.52234 -11.3388 -70.1915 0 88.8779 95.0253 68.7166 -3.30652 -3.94262 19.6898 -1.78991 -175.545 44.3643 164.298 179.142 83.2489 -149.303 1.12148 -9.57495 -22.5602 -125.976 -15.5581 -34.3586 14.9039 -14.6931 -132.723 0.420957 0.000576292 0.35866 -2.06191 7.58971 41.49 -124.149 16.7989 57.738 19.8266 18.1679 130.461 0.586761 0.000330875 0.0646653 -48.7044 -3.03158 87.7565 -3.82141 37.9887 -22.7595 -2.49606 -3.33604 -0.10155 24.3259 -42.7407 7.78818 -49.4461 4.62097 95.8932 1.58107 35.2271 11.5404 -2.85483 0.286995 0.502058 7.52086 -40.5141 9.44985 
-50.0559 12.8317 9.65598 -17.3418 3.20138 -11.5099 -70.1915 0 88.8779 95.2876 68.8393 -3.62037 -3.90414 19.8508 -1.86189 -175.71 44.2215 164.044 -178.099 83.1354 -152.158 1.13784 -9.44386 -22.5395 -126.049 -15.5268 -34.4549 15.0456 -14.8102 -132.668 0.420957 0.000576292 0.35866 -2.06634 7.58417 41.5683 -124.334 16.8012 57.9396 19.8463 18.1795 130.448 0.586761 0.000330875 0.0646653 -48.8963 -2.93537 88.088 -3.80056 37.8451 -22.685 -2.42901 -3.3412 -0.108982 24.9377 -43.4066 8.22632 -49.4575 4.79844 96.4052 1.60614 35.34 10.9689 -3.45691 0.536257 0.571036 7.88736 -41.0591 10.3688 
-50.0674 12.8404 9.66338 -17.2871 3.24928 -11.4919 -70.1915 0 88.8779 95.2479 68.7926 -3.63639 -3.85031 19.7772 -1.82011 -175.92 44.2386 164.502 179.836 83.1451 -150.302 1.14131 -9.42349 -22.6709 -126.005 -15.6066 -34.5013 14.9945 -14.7585 -132.668 0.420957 0.000576292 0.35866 -2.081 7.64435 41.5359 -124.329 16.7705 57.9033 19.8058 18.1461 130.46 0.586761 0.000330875 0.0646653 -48.87 -2.93057 88.1058 -3.80126 37.9502 -22.5114 -2.02678 -3.19827 -0.135349 25.009 -43.6308 7.96475 -49.5721 4.79722 96.5332 1.56938 35.2335 10.4884 -2.17207 -0.231334 0.440131 7.74479 -39.3441 11.8725 
-50.0736 12.8382 9.66266 -17.2973 3.34502 -11.4563 -70.1915 0 88.8779 95.1229 68.7501 -3.46246 -3.85208 19.7437 -1.85734 -175.504 44.2538 164.527 177.61 83.1142 -147.834 1.13857 -9.44352 -22.6376 -125.912 -15.559 -34.4455 15.0047 -14.7823 -132.693 0.420957 0.000576292 0.35866 -2.08981 7.66718 41.5656 -124.242 16.8165 57.8257 19.7343 18.0988 130.498 0.586761 0.000330875 0.0646653 -48.8195 -2.97347 88.0168 -3.7928 37.9619 -22.3596 -1.8454 -3.21747 -0.155584 24.2746 -43.1032 6.83447 -49.5151 4.68603 96.2054 1.59312 35.2774 10.9109 -2.80411 0.0962109 0.505574 7.80966 -40.1946 11.0722 
-50.046 12.8237 9.6582 -17.3321 3.32544 -11.4287 -70.1915 0 88.8779 95.1519 68.7494 -3.37718 -3.87198 19.7822 -1.97212 -175.032 44.2627 164.087 179.103 83.1431 -149.169 1.13732 -9.44438 -22.4678 -125.782 -15.4281 -34.3489 14.8673 -14.6574 -132.722 0.420957 0.000576292 0.35866 -2.09114 7.63937 41.6856 -124.278 16.9644 57.9132 19.8093 18.1455 130.454 0.586761 0.000330875 0.0646653 -48.8277 -2.93067 87.9818 -3.80407 37.9183 -22.6102 -2.1164 -3.1513 -0.121779 24.813 -43.4615 7.72605 -49.497 4.78773 96.2911 1.62058 35.2617 10.9843 -3.27629 0.518638 0.546534 7.71795 -40.9357 9.82325 
-50.0369 12.824 9.65316 -17.3578 3.24698 -11.5065 -70.1915 0 88.8779 94.9646 68.8532 -3.36933 -3.86467 19.8141 -1.74881 -175.023 44.295 164.14 179.342 83.1883 -149.378 1.12577 -9.5394 -22.5322 -125.727 -15.4735 -34.2479 14.8742 -14.6644 -132.72 0.420957 0.000576292 0.35866 -2.08342 7.64201 41.576 -124.263 17.0546 57.8116 19.6899 18.0729 130.527 0.586761 0.000330875 0.0646653 -48.8322 -2.92 88.135 -3.78097 37.8556 -22.3595 -1.99226 -3.12078 -0.131476 24.8759 -43.7503 7.30171 -49.4871 4.72464 96.2801 1.58631 35.2648 11.4255 -2.63511 0.27884 0.475519 7.52767 -40.4816 9.50554 
-50.0415 12.8268 9.65071 -17.4221 3.31005 -11.4969 -70.1915 0 88.8779 94.5592 68.7906 -2.90979 -3.71567 19.7706 -1.87937 -174.802 44.237 163.885 179.216 83.1073 -149.097 1.14423 -9.39374 -22.5493 -125.772 -15.4898 -34.3921 14.8485 -14.6224 -132.689 0.420957 0.000576292 0.35866 -2.09554 7.64515 41.7209 -124.257 16.9967 57.9765 19.7326 18.0665 130.452 0.586761 0.000330875 0.0646653 -48.7422 -2.97303 88.0542 -3.76793 37.8489 -22.1697 -1.96503 -3.10426 -0.132745 24.5401 -43.5854 6.62556 -49.3375 4.71552 96.2019 1.62669 35.366 11.2652 -3.85241 0.937676 0.608082 7.90331 -41.821 9.60524 
-50.0489 12.8284 9.6558 -17.3661 3.34513 -11.4716 -70.1915 0 88.8779 94.7594 68.7877 -3.10609 -3.75124 19.7763 -1.89642 -174.357 44.1576 163.339 -178.765 83.0396 -150.7 1.13504 -9.46681 -22.5514 -125.773 -15.5104 -34.3361 14.9366 -14.7052 -132.674 0.420957 0.000576292 0.35866 -2.09244 7.62472 41.7565 -124.252 17.0139 57.9152 19.6031 17.97 130.505 0.586761 0.000330875 0.0646653 -48.7359 -2.97635 87.9777 -3.77658 37.9309 -22.1618 -2.28909 -3.21527 -0.110459 24.4964 -43.5994 6.46224 -49.5214 4.73763 96.436 1.59383 35.2296 11.2721 -1.7829 -0.175192 0.385628 7.3394 -39.4499 9.87964 
-50.0504 12.824 9.65718 -17.3407 3.29421 -11.4967 -70.1915 0 88.8779 94.8873 68.7948 -3.20558 -3.72907 19.8108 -1.96962 -173.985 43.9845 162.717 -175.113 82.8966 -154.184 1.13691 -9.44571 -22.4315 -125.852 -15.4285 -34.2792 14.8341 -14.6135 -132.698 0.420957 0.000576292 0.35866 -2.09627 7.63899 41.7533 -124.259 16.9424 57.9098 19.6581 18.0169 130.492 0.586761 0.000330875 0.0646653 -48.7874 -2.94668 88.0568 -3.77686 37.9102 -22.2019 -2.10276 -3.13353 -0.12147 24.7394 -43.7997 6.78218 -49.5049 4.66549 96.2422 1.61401 35.2687 11.321 -2.51481 0.173364 0.464948 7.57886 -40.0932 10.1729 
